<?xml version="1.0" encoding="utf-8"?>
<!-- Generator: Adobe Illustrator 19.2.0, SVG Export Plug-In . SVG Version: 6.00 Build 0)  -->
<svg version="1.1" id="Layer_1" xmlns="http://www.w3.org/2000/svg" xmlns:xlink="http://www.w3.org/1999/xlink" x="0px" y="0px"
	 width="75px" height="77px" viewBox="0 0 75 77" style="enable-background:new 0 0 75 77;" xml:space="preserve">
<style type="text/css">
	.st0{fill:url(#SVGID_1_);}
</style>
<linearGradient id="SVGID_1_" gradientUnits="userSpaceOnUse" x1="15.5141" y1="20.818" x2="48.7765" y2="63.392">
	<stop  offset="0" style="stop-color:#1E9AEA"/>
	<stop  offset="1" style="stop-color:#356DBF"/>
</linearGradient>
<path class="st0" d="M69.7,18.4c-1.5,0-2.7,0.5-3.8,1.5L49.1,36.7l-9.8-9.8L56,10.1c1-1,1.5-2.3,1.5-3.8c0-1.5-0.5-2.8-1.5-3.8
	c-1-1-2.3-1.5-3.8-1.5c-1.5,0-2.7,0.5-3.8,1.5L31.7,19.3l-6.3-6.3l-6.7,6.7c-4.5,4.5-7.2,10-7.8,16.3c-0.7,6.3,0.7,12.1,4.2,17.2
	L0,68.4V76h7.6l15.2-15.2c5.2,3.5,10.9,4.9,17.2,4.2c6.3-0.7,11.8-3.3,16.3-7.8l6.7-6.7l-6.3-6.3l16.8-16.7c1-1.1,1.5-2.3,1.5-3.8
	c0-1.5-0.5-2.7-1.5-3.8C72.4,18.9,71.2,18.4,69.7,18.4z"/>
</svg>
