<?xml version="1.0" encoding="utf-8"?>
<!-- Generator: Adobe Illustrator 19.2.0, SVG Export Plug-In . SVG Version: 6.00 Build 0)  -->
<svg version="1.1" id="Layer_1" xmlns="http://www.w3.org/2000/svg" xmlns:xlink="http://www.w3.org/1999/xlink" x="0px" y="0px"
	 width="85px" height="64px" viewBox="0 0 85 64" style="enable-background:new 0 0 85 64;" xml:space="preserve">
<style type="text/css">
	.st0{fill:url(#SVGID_1_);}
</style>
<linearGradient id="SVGID_1_" gradientUnits="userSpaceOnUse" x1="23.7389" y1="7.8865" x2="61.2608" y2="55.9124">
	<stop  offset="0" style="stop-color:#FF8C4A"/>
	<stop  offset="1" style="stop-color:#FF6338"/>
</linearGradient>
<path class="st0" d="M27,51.2c0-0.4-0.2-0.8-0.5-1.1L8.3,31.9l18.3-18.3c0.3-0.3,0.5-0.7,0.5-1.1c0-0.4-0.2-0.8-0.5-1.1l-2.3-2.3
	c-0.3-0.3-0.7-0.5-1.1-0.5c-0.4,0-0.8,0.2-1.1,0.5L0.5,30.8C0.2,31.1,0,31.5,0,31.9c0,0.4,0.2,0.8,0.5,1.1l21.6,21.7
	c0.3,0.3,0.7,0.5,1.1,0.5c0.4,0,0.8-0.2,1.1-0.5l2.3-2.3C26.9,52,27,51.6,27,51.2z M53.9,1.6C53.7,1.2,53.4,1,53,0.9l-2.9-0.8
	C49.7-0.1,49.4,0,49,0.2c-0.4,0.2-0.6,0.5-0.7,0.9L31,61.1c-0.1,0.4-0.1,0.8,0.1,1.1c0.2,0.4,0.5,0.6,0.9,0.7l2.9,0.8
	c0.4,0.1,0.7,0.1,1.1-0.1c0.4-0.2,0.6-0.5,0.7-0.9L54,2.7C54.1,2.3,54.1,1.9,53.9,1.6z M85,31.9c0-0.4-0.2-0.8-0.5-1.1L62.9,9.2
	c-0.3-0.3-0.7-0.5-1.1-0.5c-0.4,0-0.8,0.2-1.1,0.5l-2.3,2.3c-0.3,0.3-0.5,0.7-0.5,1.1c0,0.4,0.2,0.8,0.5,1.1l18.3,18.3L58.4,50.2
	c-0.3,0.3-0.5,0.7-0.5,1.1c0,0.4,0.2,0.8,0.5,1.1l2.3,2.3c0.3,0.3,0.7,0.5,1.1,0.5c0.4,0,0.8-0.2,1.1-0.5L84.5,33
	C84.8,32.7,85,32.3,85,31.9z"/>
</svg>
