<?xml version="1.0" encoding="utf-8"?>
<!-- Generator: Adobe Illustrator 19.2.0, SVG Export Plug-In . SVG Version: 6.00 Build 0)  -->
<svg version="1.1" id="Layer_1" xmlns="http://www.w3.org/2000/svg" xmlns:xlink="http://www.w3.org/1999/xlink" x="0px" y="0px"
	 width="83px" height="83px" viewBox="0 0 83 83" style="enable-background:new 0 0 83 83;" xml:space="preserve">
<style type="text/css">
	.st0{fill:url(#SVGID_1_);}
</style>
<linearGradient id="SVGID_1_" gradientUnits="userSpaceOnUse" x1="31.8795" y1="12.9797" x2="68.5626" y2="59.9318">
	<stop  offset="0" style="stop-color:#FB5B97"/>
	<stop  offset="1" style="stop-color:#FB5B66"/>
</linearGradient>
<path class="st0" d="M66.5,21.4c-1.3,0-2.5-0.5-3.4-1.4c-0.9-0.9-1.4-2.1-1.4-3.4c0-1.3,0.5-2.5,1.4-3.4c0.9-0.9,2.1-1.4,3.4-1.4
	c1.3,0,2.5,0.5,3.4,1.4c0.9,0.9,1.4,2.1,1.4,3.4c0,1.3-0.5,2.5-1.4,3.4C69,20.9,67.8,21.4,66.5,21.4z M82.1,0.9
	c-0.3-0.3-0.7-0.5-1.2-0.5c-8.7,0-16,1.2-21.6,3.6c-5.7,2.4-11.7,6.7-18,13c-2.7,2.7-5.6,6-8.8,9.8l-19,1c-0.5,0.1-1,0.3-1.3,0.8
	L0.8,47.9c-0.4,0.7-0.3,1.3,0.3,2L4.3,53c0.3,0.3,0.7,0.5,1.2,0.5c0.2,0,0.4,0,0.5-0.1l13.9-4.3l14.1,14.1l-4.3,13.9
	c-0.2,0.6,0,1.1,0.4,1.6l3.2,3.2c0.4,0.3,0.8,0.5,1.2,0.5c0.3,0,0.6-0.1,0.8-0.2L54.4,71c0.5-0.3,0.7-0.8,0.8-1.3l1-19
	c3.8-3.2,7.1-6.2,9.8-8.8c6-6,10.2-12,12.7-18.1c2.5-6.1,3.8-13.3,3.8-21.6C82.6,1.6,82.4,1.3,82.1,0.9z"/>
</svg>
