<?xml version="1.0" encoding="utf-8"?>
<!-- Generator: Adobe Illustrator 19.2.0, SVG Export Plug-In . SVG Version: 6.00 Build 0)  -->
<svg version="1.1" id="Layer_1" xmlns="http://www.w3.org/2000/svg" xmlns:xlink="http://www.w3.org/1999/xlink" x="0px" y="0px"
	 width="85.4px" height="80px" viewBox="0 0 85.4 80" style="enable-background:new 0 0 85.4 80;" xml:space="preserve">
<style type="text/css">
	.st0{fill:url(#SVGID_1_);}
</style>
<linearGradient id="SVGID_1_" gradientUnits="userSpaceOnUse" x1="15.2535" y1="8.6905" x2="67.4235" y2="75.4651">
	<stop  offset="0" style="stop-color:#D74AFF"/>
	<stop  offset="1" style="stop-color:#8F18DE"/>
</linearGradient>
<path class="st0" d="M79.7,16.9c0.1,1.2,0,2.1-0.3,2.9L64.4,69.5c-0.3,0.9-0.9,1.6-1.8,2.1c-0.9,0.5-1.8,0.8-2.8,0.8H13.2
	c-4,0-6.5-1.2-7.3-3.5C5.6,68,5.6,67.2,6,66.7c0.4-0.5,1-0.8,1.9-0.8h43.8c3.1,0,5.3-0.6,6.5-1.7c1.2-1.2,2.4-3.7,3.6-7.7l13.8-45.7
	c0.7-2.5,0.4-4.7-0.9-6.6c-1.3-1.9-3.3-2.8-5.8-2.8H30.6c-0.4,0-1.3,0.2-2.6,0.5l0.1-0.2c-0.9-0.2-1.7-0.3-2.4-0.3
	c-0.7,0-1.3,0.2-1.8,0.6c-0.6,0.4-1,0.8-1.3,1.2c-0.3,0.4-0.7,1-1,1.6C21.2,5.4,21,6,20.7,6.6c-0.2,0.6-0.5,1.1-0.8,1.8
	c-0.3,0.6-0.6,1.1-0.8,1.5c-0.2,0.3-0.5,0.6-0.9,1.1c-0.4,0.4-0.7,0.8-0.9,1.2c-0.2,0.3-0.4,0.6-0.5,0.9c-0.1,0.3,0,0.7,0.1,1.3
	c0.1,0.6,0.2,1,0.2,1.3c-0.1,1.3-0.6,2.9-1.4,4.9c-0.8,2-1.5,3.4-2.1,4.3c-0.1,0.2-0.5,0.5-1.1,1.1c-0.6,0.6-1,1.1-1.1,1.5
	c-0.1,0.2-0.1,0.6,0,1.4c0.1,0.8,0.2,1.3,0.1,1.6c-0.1,1.1-0.6,2.7-1.3,4.5c-0.7,1.9-1.4,3.4-2.1,4.6c-0.1,0.2-0.4,0.6-0.9,1.2
	c-0.5,0.6-0.8,1-0.9,1.4c-0.1,0.3-0.1,0.7,0,1.4c0.1,0.7,0.1,1.2,0,1.5c-0.3,1.3-0.8,2.8-1.5,4.6c-0.7,1.8-1.5,3.3-2.3,4.6
	c-0.2,0.3-0.5,0.7-0.8,1.2C1.5,56,1.2,56.4,1,56.8c-0.2,0.3-0.3,0.7-0.4,1.1c0,0.2,0,0.5,0.2,1c0.1,0.5,0.2,0.8,0.2,1.1
	c0,0.5-0.1,1.1-0.2,1.9c-0.1,0.8-0.2,1.2-0.2,1.4c-0.7,2-0.7,4.2,0.1,6.4c0.9,2.6,2.6,4.8,5,6.6c2.4,1.8,4.9,2.7,7.5,2.7h46.6
	c2.2,0,4.2-0.7,6.2-2.2c1.9-1.5,3.2-3.3,3.9-5.4l13.9-45.7c0.7-2.4,0.4-4.6-0.9-6.5C82,18.1,81,17.4,79.7,16.9L79.7,16.9z
	 M30.1,15.9c0.1-0.4,0.4-0.8,0.8-1.1c0.4-0.3,0.8-0.5,1.3-0.5h30.7c0.5,0,0.8,0.2,1,0.5c0.2,0.3,0.2,0.7,0.1,1.1l-1.1,3.2
	c-0.1,0.4-0.4,0.8-0.8,1.1c-0.4,0.3-0.8,0.5-1.3,0.5H30.2c-0.5,0-0.8-0.2-1-0.5c-0.2-0.3-0.2-0.7-0.1-1.1L30.1,15.9z M25.9,28.8
	c0.1-0.4,0.4-0.8,0.8-1.1c0.4-0.3,0.8-0.5,1.3-0.5h30.7c0.5,0,0.8,0.2,1,0.5c0.2,0.3,0.2,0.7,0.1,1.1L58.8,32
	c-0.1,0.4-0.4,0.8-0.8,1.1c-0.4,0.3-0.8,0.5-1.3,0.5H26c-0.5,0-0.8-0.2-1-0.5c-0.2-0.3-0.2-0.7-0.1-1.1L25.9,28.8z"/>
</svg>
