<svg width="146" height="26" viewBox="0 0 146 26" xmlns="http://www.w3.org/2000/svg"><title>elasticio-newlogo</title><g fill-rule="nonzero" fill="none"><g fill="#E64F39"><path d="M46.832 25.323c-2.293 0-4.177-.724-5.488-2.253-1.31-1.528-2.047-3.54-2.047-6.194 0-2.413.655-4.424 2.047-5.953 1.31-1.528 3.113-2.413 5.242-2.413 2.048 0 3.604.724 4.832 2.092 1.147 1.367 1.802 3.298 1.802 5.63V17.36H41.836c0 1.77.49 3.216 1.392 4.262.983 1.046 2.13 1.61 3.604 1.61 1.884 0 3.604-.564 5.16-1.61l.737 1.77c-1.393 1.287-3.44 1.93-5.898 1.93zm-4.914-9.653h8.68c0-1.69-.408-2.896-1.145-3.862-.737-.885-1.802-1.367-3.03-1.367-1.23 0-2.294.483-3.113 1.368-.737 1.046-1.23 2.253-1.392 3.862zM57.89 2.88v17.294c0 .402 0 .805.08 1.126 0 .403.083.724.165.885.08.16.163.402.327.563.164.16.328.322.492.322.163.08.41.08.737.08.083 0 .574 0 1.31-.08l.165 1.93c-.737.162-1.31.162-1.72.162-.573 0-1.065-.08-1.474-.16-.41-.082-.736-.243-1.064-.323-.328-.162-.573-.323-.737-.725l-.493-.965c-.08-.322-.163-.724-.245-1.368-.082-.643-.082-1.126-.082-1.61V3.123l2.54-.243zM71.812 23.23c-1.31 1.45-2.948 2.093-5.078 2.093-.655 0-1.31-.08-1.883-.242-.573-.16-1.146-.48-1.556-.803-.49-.322-.82-.805-1.064-1.368-.246-.564-.41-1.207-.41-1.93 0-1.85.82-3.22 2.54-4.023.982-.483 2.62-.885 4.83-1.207.165 0 .493-.08.984-.16l1.638-.162v-1.85c0-.965-.245-1.69-.737-2.252-.49-.483-1.31-.724-2.457-.724-.9 0-1.802.08-2.703.32-.9.162-1.72.484-2.375.806l-.655-1.93c.655-.322 1.474-.644 2.54-.886 1.064-.24 2.128-.32 3.193-.32 3.85 0 5.733 1.527 5.733 4.664V25.08h-2.046l-.492-1.85zm-4.914.162c.82 0 1.72-.24 2.62-.644.902-.402 1.64-1.045 2.13-1.69v-3.94s-.245.08-.737.08c-.49.08-.736.08-.736.08-.983.16-1.802.242-2.375.403-.656.16-1.23.322-1.72.483-.492.16-.902.402-1.147.644-.246.24-.492.563-.574.885-.165.32-.165.724-.165 1.206 0 .885.246 1.53.738 1.93.49.323 1.146.564 1.965.564zM87.702 20.657c-.082 1.448-.574 2.654-1.557 3.46-.982.803-2.293 1.206-3.85 1.206-1.146 0-2.292-.16-3.275-.483-1.065-.322-1.802-.644-2.375-1.046l.655-1.85c.328.16.655.402.983.563.327.16.9.322 1.556.563.654.16 1.39.24 2.047.24h.245c.983 0 1.72-.24 2.294-.642.573-.483.9-1.046.982-1.93v-.162c0-1.206-.82-2.01-2.457-2.493l-2.21-.563c-1.556-.403-2.62-.966-3.276-1.77-.655-.724-.983-1.61-.983-2.735 0-.563.083-1.126.33-1.69.244-.562.572-.965.98-1.447.41-.402.984-.805 1.72-1.046.738-.24 1.476-.402 2.377-.402 1.883 0 3.603.322 4.914 1.046l-.573 1.77c-1.474-.564-2.866-.886-4.177-.886-.9 0-1.72.242-2.293.724-.573.483-.9 1.046-.9 1.85 0 .564.163.966.572 1.368.327.402.982.644 1.8.885l2.213.563c1.392.322 2.375.885 3.112 1.69.82.804 1.147 1.85 1.147 3.217zM93.27 10.602v9.01c0 1.528.165 2.493.41 2.975.328.483.902.724 1.966.724h.328c.164 0 .41 0 .737-.08.33 0 .656-.08.902-.08l.246 2.012c-1.475.16-2.376.16-2.867.16-.408 0-.818 0-1.228-.08l-.982-.24c-.246-.082-.492-.243-.737-.403-.246-.162-.41-.323-.574-.565-.165-.16-.247-.402-.41-.724-.082-.32-.164-.562-.246-.883-.082-.322-.082-.644-.164-1.127 0-.482-.082-.884-.082-1.287v-9.331H88.11l.165-1.69h2.293l.655-5.228 1.884-.16V8.91h4.34v1.69h-4.176zM102.035 3.04v2.896h-2.54V3.04h2.54zm0 5.872v16.09h-2.54V8.91h2.54zM116.695 23.875c-.49.482-1.146.804-1.965 1.126-.82.242-1.638.403-2.457.403-1.23 0-2.376-.24-3.358-.644-.983-.483-1.884-1.046-2.457-1.85-.656-.805-1.147-1.69-1.475-2.655-.327-1.046-.49-2.092-.49-3.218s.163-2.172.572-3.218c.328-1.046.9-1.93 1.556-2.655.657-.805 1.476-1.368 2.458-1.85.983-.483 2.13-.724 3.277-.724.982 0 1.8.162 2.62.403.82.24 1.393.563 1.884 1.046l-.656 1.768c-1.147-.724-2.457-1.126-3.85-1.126-1.474 0-2.784.644-3.767 1.85-.983 1.207-1.474 2.735-1.474 4.585s.49 3.38 1.474 4.586c.983 1.206 2.293 1.77 3.93 1.77 1.312 0 2.54-.403 3.687-1.207l.49 1.61zM120.3 25.162c-.656 0-1.066-.16-1.475-.563-.328-.404-.49-.806-.49-1.37 0-.562.162-.964.49-1.366.328-.403.82-.564 1.474-.564s1.146.16 1.473.564c.328.402.492.804.492 1.367 0 .564-.164.966-.492 1.37-.41.32-.9.562-1.474.562zM127.59 3.04v2.896h-2.54V3.04h2.54zm0 5.872v16.09h-2.54V8.91h2.54zM145.198 16.876c0 1.126-.164 2.172-.492 3.218-.327 1.046-.82 1.93-1.474 2.654-.655.805-1.392 1.368-2.375 1.85-.983.483-2.048.644-3.276.644-1.637 0-3.03-.402-4.176-1.126-1.147-.724-2.048-1.77-2.62-3.057-.575-1.288-.902-2.655-.902-4.184 0-1.528.327-2.976.9-4.263.574-1.287 1.475-2.253 2.704-3.057 1.228-.804 2.62-1.126 4.177-1.126.983 0 1.883.16 2.703.402.82.322 1.556.724 2.13 1.207.572.48 1.064 1.125 1.473 1.85.41.723.736 1.447.9 2.332.246.884.328 1.77.328 2.654zm-2.62.08c0-.884-.083-1.69-.247-2.413-.163-.724-.49-1.448-.818-2.01-.41-.644-.9-1.127-1.556-1.45-.655-.32-1.474-.48-2.293-.48-.82 0-1.638.16-2.294.562-.656.322-1.23.885-1.64 1.448-.408.643-.736 1.287-.9 2.09-.245.725-.327 1.53-.327 2.414 0 .805.082 1.61.327 2.333.246.724.492 1.448.9 2.01.41.564.984 1.047 1.64 1.45.655.32 1.474.562 2.293.562.82 0 1.638-.16 2.293-.563.655-.323 1.147-.805 1.556-1.45.41-.562.655-1.286.82-2.01.163-.885.245-1.69.245-2.493z"/></g><path d="M28.895 25.242c4.013 0 7.29-3.218 7.29-7.16 0-3.056-1.966-5.79-4.915-6.756.737-4.585-1.72-7.24-4.013-8.688-.9-.563-2.54-1.207-4.587-1.207-1.883 0-5.24.564-7.535 4.345-.983-.643-2.047-.885-3.194-.885-1.8 0-3.03.805-3.52 1.127-2.458 1.77-2.54 4.183-2.458 5.39-2.948 1.125-4.75 3.62-4.75 6.756 0 3.942 3.276 7.16 7.29 7.16h20.393v-.08z" fill="#E64F39"/><path d="M22.752 1.994c1.72 0 3.358.483 4.26 1.127 2.13 1.368 4.586 4.023 3.603 8.608 2.867.804 4.996 3.298 4.996 6.355 0 3.62-3.03 6.596-6.715 6.596H8.665c-3.686 0-6.716-2.977-6.716-6.597 0-2.977 1.883-5.39 4.83-6.355-.245-1.368-.163-3.7 2.13-5.31.738-.482 1.802-.965 3.113-.965 1.065 0 2.21.322 3.358 1.207 1.885-3.62 4.833-4.666 7.372-4.666zm0-1.206c-1.965 0-5.323.563-7.7 4.102-.9-.482-1.882-.724-2.947-.724-1.966 0-3.358.885-3.85 1.207-2.375 1.69-2.784 4.103-2.702 5.47-2.95 1.287-4.75 3.942-4.75 7.16 0 4.263 3.52 7.802 7.944 7.802h20.23c4.34 0 7.945-3.46 7.945-7.803 0-3.137-1.966-5.952-4.833-7.16.41-3.62-1.147-6.756-4.342-8.848-1.31-.723-3.194-1.206-4.996-1.206z" fill="#E64F39"/><path d="M22.752 1.994c1.72 0 3.358.483 4.26 1.127 2.13 1.368 4.586 4.023 3.603 8.608 2.867.804 4.996 3.298 4.996 6.355 0 3.62-3.03 6.596-6.715 6.596H8.665c-3.686 0-6.716-2.977-6.716-6.597 0-2.977 1.883-5.39 4.83-6.355-.245-1.368-.163-3.7 2.13-5.31.738-.482 1.802-.965 3.113-.965 1.065 0 2.21.322 3.358 1.207 1.885-3.62 4.833-4.666 7.372-4.666zm0-.643c-1.883 0-5.242.564-7.535 4.345-.983-.644-2.047-.885-3.194-.885-1.802 0-3.03.804-3.522 1.126-2.456 1.77-2.538 4.183-2.456 5.39-2.95 1.126-4.75 3.62-4.75 6.757 0 3.94 3.276 7.16 7.29 7.16h20.23c4.012 0 7.29-3.22 7.29-7.16 0-3.057-1.967-5.792-4.916-6.757.737-4.585-1.72-7.24-4.013-8.688-.737-.644-2.457-1.287-4.423-1.287z" fill="#FFF"/><g fill="#FFF"><path d="M21.278 9.234c0-.322.328-.643.655-.643.328 0 .655.322.655.644v4.425h-1.31V9.233zM15.71 8.59c.326 0 .654.322.654.644v4.425h-1.31V9.233c0-.402.245-.643.655-.643zM13.333 14.14v1.208s0 .08.082.08h.328v1.77c0 1.85 1.392 3.378 3.194 3.54v.32c0 .564.41 1.127.983 1.208v2.654c.573-.16 1.147-.24 1.72-.24h.082v-2.414c.573-.16.983-.644.983-1.207v-.323c1.802-.16 3.194-1.69 3.194-3.54v-1.77h.327s.08 0 .08-.08v-1.206s0-.08-.08-.08l-10.894.08c0-.08 0 0 0 0zm2.703 4.104c0-.08.082-.16.164-.16h5.242c.082 0 .164.08.164.16s-.082.16-.164.16h-5.324c-.082 0-.082-.08-.082-.16zm-.573-.966c0-.08.082-.16.164-.16h6.47c.082 0 .164.08.164.16s-.08.16-.163.16h-6.47c-.164 0-.164-.08-.164-.16zm0-.965c0-.08.082-.16.164-.16h6.47c.082 0 .164.08.164.16s-.08.16-.163.16h-6.47c-.164 0-.164-.08-.164-.16z"/></g></g></svg>