<?xml version="1.0" encoding="utf-8"?>
<!-- Generator: Adobe Illustrator 19.2.0, SVG Export Plug-In . SVG Version: 6.00 Build 0)  -->
<svg version="1.1" id="Layer_1" xmlns="http://www.w3.org/2000/svg" xmlns:xlink="http://www.w3.org/1999/xlink" x="0px" y="0px"
	 width="92px" height="65px" viewBox="0 0 92 65" style="enable-background:new 0 0 92 65;" xml:space="preserve">
<style type="text/css">
	.st0{fill-rule:evenodd;clip-rule:evenodd;fill:url(#SVGID_1_);}
</style>
<linearGradient id="SVGID_1_" gradientUnits="userSpaceOnUse" x1="46" y1="4.938556e-10" x2="46" y2="65">
	<stop  offset="0" style="stop-color:#FF8C4A"/>
	<stop  offset="1" style="stop-color:#FF6338"/>
</linearGradient>
<path class="st0" d="M92,45.5c0,10.6-8.5,19.2-19,19.5v0c0,0-39.5,0-53.5,0C8.7,65,0,56.3,0,45.5C0,37,5.5,29.7,13.2,27.1
	C13.1,26.4,13,25.7,13,25c0-8.8,7.2-16,16-16c3,0,5.8,0.8,8.2,2.3C41.2,4.5,48.6,0,57,0c12.7,0,23,10.3,23,23c0,1.5-0.2,2.9-0.4,4.3
	C86.8,30.2,92,37.2,92,45.5z M39,19c0-0.6-0.4-1-1-1c-0.6,0-1,0.4-1,1v11h2V19z M55,19c0-0.6-0.4-1-1-1c-0.6,0-1,0.4-1,1v11h2V19z
	 M59,32H33c-1.1,0-2,0.9-2,2c0,1.1,0.9,2,2,2v5c0,4.6,3.5,8.4,8,8.9V50c0,2,1.2,3.8,3,4.6V62h4v-7.4c1.8-0.8,3-2.5,3-4.6v-0.1
	c4.5-0.5,8-4.3,8-8.9v-5c1.1,0,2-0.9,2-2C61,32.9,60.1,32,59,32z M52,41H40c-0.6,0-1-0.4-1-1c0-0.6,0.4-1,1-1h12c0.6,0,1,0.4,1,1
	C53,40.6,52.6,41,52,41z M42,43h8c0.6,0,1,0.4,1,1c0,0.6-0.4,1-1,1h-8c-0.6,0-1-0.4-1-1C41,43.4,41.4,43,42,43z"/>
</svg>
