<?xml version="1.0" encoding="utf-8"?>
<!-- Generator: Adobe Illustrator 19.2.0, SVG Export Plug-In . SVG Version: 6.00 Build 0)  -->
<svg version="1.1" id="Layer_1" xmlns="http://www.w3.org/2000/svg" xmlns:xlink="http://www.w3.org/1999/xlink" x="0px" y="0px"
	 width="18.1px" height="18.1px" viewBox="0 0 18.1 18.1" style="enable-background:new 0 0 18.1 18.1;" xml:space="preserve">
<style type="text/css">
	.st0{fill-rule:evenodd;clip-rule:evenodd;fill:#586475;}
</style>
<path class="st0" d="M17.7,15.2c0.5,0.5,0.5,1.4,0,1.9c-0.5,0.5-1.4,0.5-1.9,0l-4.4-4.4c0,0-0.1-0.1-0.1-0.1
	c-2.6,1.7-6.1,1.4-8.3-0.8C0.5,9.2,0.5,5,3.1,2.4c2.6-2.6,6.8-2.6,9.4,0c2.3,2.3,2.5,5.8,0.8,8.3c0,0,0.1,0.1,0.1,0.1L17.7,15.2z
	 M11.3,3.6c-2-2-5.2-2-7.1,0c-2,2-2,5.2,0,7.1c2,2,5.2,2,7.1,0C13.3,8.7,13.3,5.5,11.3,3.6z"/>
</svg>
